PathFileType	4	(X/Y/Z)	/Users/visionmauri/Downloads/Videos/OAW11-top_Sports2D/OAW11-top_Sports2D_px_person00.trc
DataRate	CameraRate	NumFrames	NumMarkers	Units	OrigDataRate	OrigDataStartFrame	OrigNumFrames
30.0	30.0	7	22	m	30.0	0	2166
Frame#	Time	Hip			RHip			RKnee			RAnkle			RBigToe			RSmallToe			RHeel			LHip			LKnee			LAnkle			LBigToe			LSmallToe			LHeel			Neck			Head			Nose			RShoulder			RElbow			RWrist			LShoulder			LElbow			LWrist			
		X1	Y1	Z1	X2	Y2	Z2	X3	Y3	Z3	X4	Y4	Z4	X5	Y5	Z5	X6	Y6	Z6	X7	Y7	Z7	X8	Y8	Z8	X9	Y9	Z9	X10	Y10	Z10	X11	Y11	Z11	X12	Y12	Z12	X13	Y13	Z13	X14	Y14	Z14	X15	Y15	Z15	X16	Y16	Z16	X17	Y17	Z17	X18	Y18	Z18	X19	Y19	Z19	X20	Y20	Z20	X21	Y21	Z21	X22	Y22	Z22
0	0.0	489.6473234726928	589.4662039605848	0.0	477.79819403436585	587.0962655032489	0.0	476.02081648463184	632.7157684377909	0.0	475.4282889635599	677.1502625710375	0.0	474.2434211927779	688.9994485453503	0.0	466.54145179538597	688.9994569834448	0.0	478.9830452865703	685.4446407327991	0.0	502.6814860054808	587.0963244505082	0.0	502.08899317803565	632.7157755903282	0.0	503.866328832498	677.1501809683364	0.0	500.90406392534396	690.184438685913	0.0	507.42108556522095	690.184361947449	0.0	502.68138434687444	684.8521748125903	0.0	494.38701264063087	523.1110120470271	0.0	496.16451432863323	498.2279024035122	0.0	493.7947271295044	519.5563710679647	0.0	475.428324331057	527.8505141317664	0.0	466.5415117753302	563.9905171976109	0.0	460.61688380937716	595.3908888932419	0.0	513.3457958533162	527.8504914598716	0.0	522.2326665236985	565.1754311524039	0.0	521.6401916214156	597.1682202437944	0.0
1	0.033348729792147806	489.66269934905284	589.5623226530719	0.0	477.6693493441048	587.3534066090768	0.0	475.882911811708	632.8093804046822	0.0	475.4988057885882	677.0119126280342	0.0	474.1596027158555	689.0251803946306	0.0	466.6594681072094	688.8439907095728	0.0	478.83580719215047	685.2493352779014	0.0	502.25935275736975	587.5748574501836	0.0	501.6591280798474	632.7765276288798	0.0	503.5952617985699	677.0588689111879	0.0	501.09547064347873	690.4098389264329	0.0	507.37969106128827	690.4111555059569	0.0	502.8396530845801	684.6759705147417	0.0	493.93979005989837	523.1697552756654	0.0	495.2802354109388	498.507031169374	0.0	493.16233920236954	519.789104870353	0.0	475.12739196758366	527.8946208842866	0.0	466.20873736126936	563.8817054587595	0.0	460.34693138383943	595.2174768298042	0.0	513.25581259993	527.903671331949	0.0	521.8696298485179	565.2995999197988	0.0	521.2789577897271	597.3635846687142	0.0
2	0.06669745958429561	489.57208469498846	589.5001559467714	0.0	477.4116794546684	587.4477399102724	0.0	475.6697624849062	632.8207149648533	0.0	475.6392775249412	676.785721924261	0.0	473.8002906204128	689.0883888382143	0.0	466.8235181416805	688.6824944642253	0.0	478.73925360804725	685.0636205899127	0.0	501.648769872854	587.9926944454012	0.0	501.3146651635825	632.8397241640029	0.0	503.2867574138323	677.0456780513164	0.0	501.3508130551996	690.6940131121463	0.0	507.3781204002059	690.7061390281419	0.0	503.008032931369	684.4377820429067	0.0	493.5013212567508	523.369788096775	0.0	494.31194265557895	499.23121156363635	0.0	492.53260071880754	520.1251071008995	0.0	474.80553228934735	527.9400132960201	0.0	465.8389264649839	563.6287257833021	0.0	459.9503032058439	594.9632118758799	0.0	513.2150359771201	527.9719159606451	0.0	521.3111285322589	565.3813040597859	0.0	520.719293707839	597.7136672965294	0.0
3	0.10004618937644341	489.35830602901046	589.119387913463	0.0	477.03169658226244	587.2002465325261	0.0	475.4010252524894	632.6600451930252	0.0	475.80841882183734	676.5327285270207	0.0	473.166718232338	689.2082914528827	0.0	466.9510401635526	688.5597205155361	0.0	478.74445294091214	684.9751279053393	0.0	500.98547230057613	588.0889352730555	0.0	501.1498023372122	632.8671328507517	0.0	503.062208752405	677.0701227810388	0.0	501.54360722845956	690.967941599358	0.0	507.4029648526995	690.9887324762891	0.0	503.0667658226735	684.2189835958497	0.0	493.2481829357403	523.7447189913257	0.0	493.6024690685005	500.12214921000225	0.0	492.1003148036644	520.3177701957657	0.0	474.50712578253103	527.9912700305002	0.0	465.57827216525516	563.3150692611779	0.0	459.49210072408295	594.6400300561169	0.0	513.231874100971	528.0322711840093	0.0	520.7676353967676	565.3680865397976	0.0	520.1746805004805	598.1526910816168	0.0
4	0.13339491916859123	489.13273446685986	588.5263310051854	0.0	476.609867924115	586.7112912722602	0.0	475.10030585517535	632.4276781383713	0.0	475.92356759833194	676.3695564868647	0.0	472.61762880576714	689.402476586695	0.0	466.9447767146223	688.5100780857483	0.0	478.83204779629403	684.9102086285773	0.0	500.51057129782663	587.8645938928613	0.0	500.97190486082405	632.836484359858	0.0	502.96967725272407	677.0009115491212	0.0	501.542648976306	691.1910892787055	0.0	507.43414349175214	691.1682992130167	0.0	502.8410277416167	684.0754861885224	0.0	493.1118652598019	524.1927568257012	0.0	493.1273013954021	500.62288975924815	0.0	491.7126398149939	520.3156578173076	0.0	474.20808506794765	528.0683027451332	0.0	465.4529818109061	563.1396260000795	0.0	459.0942499561517	594.2891058906979	0.0	513.1503477045236	528.0467060355498	0.0	520.5082265461842	565.2943705704762	0.0	519.9219184020121	598.519824299744	0.0
5	0.16674364896073904	489.0152242102693	588.1041919513552	0.0	476.2414040071432	586.428658348474	0.0	474.828228373563	632.3813869359557	0.0	475.97292577910156	676.4144765929718	0.0	472.41500139463886	689.6535633620804	0.0	466.8144013686112	688.5466502489062	0.0	478.9826745737834	684.7645875358355	0.0	500.29335665654787	587.6596253834798	0.0	500.59242720009183	632.7918264293229	0.0	502.9458090987788	676.9170498621878	0.0	501.4090329217559	691.4079393189255	0.0	507.57656272863966	691.2578122725452	0.0	502.36675113753927	684.0051427992086	0.0	492.8707969135251	524.4656774667461	0.0	492.5556324801129	500.6909684260684	0.0	491.0811851338744	520.426759599976	0.0	473.89911721108945	528.1535825329502	0.0	465.3266366590368	563.1797278570787	0.0	458.8692133436003	593.9303548569787	0.0	512.8061069129616	527.9945193815631	0.0	520.4879781508686	565.1935056355975	0.0	519.8969152860174	598.672572062633	0.0
6	0.20009237875288682	489.00578998111723	588.0717058242273	0.0	476.0864875999196	586.5882876460237	0.0	474.7330956566292	632.550675644586	0.0	475.96758934509677	676.7269324017976	0.0	472.3610894485281	689.8247116407994	0.0	466.62849767839407	688.6235096371066	0.0	479.1874668072609	684.6315920971596	0.0	500.23745469288826	587.6460844518695	0.0	500.2252067671189	632.7942865878325	0.0	502.9819363695373	677.0656685910425	0.0	501.2968739777526	691.6082594569195	0.0	507.92457790540044	691.314241595162	0.0	501.963344754927	684.0046390075877	0.0	492.61400412689136	524.4229974953677	0.0	492.0587995224382	500.61117042818046	0.0	490.4506865437339	520.7327012093384	0.0	473.74135789503237	528.1715911154948	0.0	465.1947162674203	563.3565682674032	0.0	458.8763306226636	593.6277846787015	0.0	512.3488214492171	527.882788066424	0.0	520.542490342471	565.0718625246259	0.0	519.8786271617532	598.5678725870235	0.0
